<svg width="157" height="38" viewBox="0 0 157 38" fill="none" xmlns="http://www.w3.org/2000/svg">
<path d="M107.745 22.4712C106.514 23.7196 105.283 24.968 102.82 24.968C99.1256 24.968 96.6629 22.4712 96.6629 18.726C96.6629 14.9808 99.1256 12.484 102.82 12.484C104.051 12.484 105.283 12.484 106.514 13.7324L116.365 7.4904C112.671 2.4968 107.745 0 101.588 0C91.7374 0 83.1178 7.4904 83.1178 18.726C83.1178 28.7132 90.506 37.452 101.588 37.452C107.745 37.452 113.902 33.7068 116.365 28.7132L107.745 22.4712Z" fill="#003A80"/>
<path d="M44.3294 0.960327H29.9523L22.7638 13.6501L14.3771 0.960327H0L22.7638 36.4917L44.3294 0.960327Z" fill="#003A80"/>
<path d="M61.4147 37.452C71.0194 37.452 79.4235 29.9616 79.4235 18.726C79.4235 8.7388 72.22 0 61.4147 0C51.81 0 43.4059 7.4904 43.4059 18.726C44.6065 28.7132 51.81 37.452 61.4147 37.452ZM61.4147 12.484C65.0165 12.484 67.4177 14.9808 67.4177 18.726C67.4177 22.4712 65.0165 24.968 61.4147 24.968C57.8129 24.968 55.4118 22.4712 55.4118 18.726C56.6124 14.9808 59.0135 12.484 61.4147 12.484Z" fill="#003A80"/>
<path d="M138.991 37.452C148.596 37.452 157 29.9616 157 18.726C157 8.7388 149.796 0 138.991 0C129.386 0 120.982 7.4904 120.982 18.726C120.982 28.7132 129.386 37.452 138.991 37.452ZM138.991 12.484C142.593 12.484 144.994 14.9808 144.994 18.726C144.994 22.4712 142.593 24.968 138.991 24.968C135.389 24.968 132.988 22.4712 132.988 18.726C132.988 14.9808 135.389 12.484 138.991 12.484Z" fill="#003A80"/>
</svg>
