<svg width="218" height="274" viewBox="0 0 218 274" fill="none" xmlns="http://www.w3.org/2000/svg">
<path d="M55.9668 183.67H0V89.5778H58.5019C98.3718 89.5778 115.231 103.262 115.231 136.388C115.231 169.513 97.1309 183.67 55.9668 183.67Z" fill="#1E2144"/>
<path d="M218 136.633C218.002 154.575 214.424 172.342 207.47 188.918C200.516 205.495 190.322 220.558 177.47 233.246C164.618 245.933 149.36 255.998 132.567 262.865C115.774 269.731 97.7753 273.265 79.5987 273.265H53.0956C51.4292 273.265 49.7805 273.265 48.1495 273.038C19.9623 270.466 22.976 228.345 51.2697 228.345H63.5728C134.094 228.345 172.688 196.025 172.688 135.933C172.688 74.231 137.019 44.7976 68.0934 44.7976H51.2342C23.0114 44.7976 20.0155 2.79986 48.1141 0.227496C49.7451 0.0700048 51.3938 0 53.0602 0H79.581C116.292 0 151.499 14.3952 177.458 40.0188C203.417 65.6424 218 100.396 218 136.633Z" fill="#1E2144"/>
</svg>
