<svg width="192" height="25" viewBox="0 0 192 25" fill="none" xmlns="http://www.w3.org/2000/svg">
<path d="M5.18916 16.3098H0V8.0426H5.42085C9.11689 8.0426 10.6799 9.24329 10.6799 12.1538C10.6799 15.0713 9.00656 16.3098 5.18916 16.3098Z" fill="#1E2144"/>
<path d="M20.2087 12.178C20.2087 18.8076 14.4642 24.1814 7.3774 24.1814H4.92073C4.76627 24.1814 4.61181 24.1746 4.46103 24.1608C1.8499 23.9337 2.1294 20.2353 4.75156 20.2353H5.89163C12.4305 20.2353 16.0088 17.397 16.0088 12.1161C16.0088 6.69405 12.7026 4.11034 6.31456 4.11034H4.75156C2.13676 4.11034 1.85725 0.418826 4.46103 0.195202C4.61181 0.18144 4.76627 0.174561 4.92073 0.174561H7.3774C14.4642 0.174561 20.2087 5.54842 20.2087 12.178Z" fill="#1E2144"/>
<path d="M109.741 2.94065L113.389 2.43835V20.9613H109.741V2.94065Z" fill="#2F9687"/>
<path d="M31.1827 3.39136H38.2843C45.0732 3.39136 48.2985 6.14365 48.2985 12.1505C48.2985 18.1849 45.0732 20.9613 38.2843 20.9613H31.1827V3.39136ZM38.4534 18.1574C42.4989 18.1574 44.4223 16.4372 44.4223 12.1505C44.4223 7.89135 42.5283 6.19525 38.5123 6.19525H34.9486V18.154H38.4534V18.1574Z" fill="#2F9687"/>
<path d="M64.1933 15.4844H53.6422C54.0099 17.6552 55.595 18.7665 58.4783 18.7665C60.4568 18.7665 61.5896 18.3949 63.5975 17.6036L63.1158 20.3284C62.0676 20.7516 60.512 21.388 57.7685 21.388C53.2156 21.388 49.8763 18.8215 49.8763 14.4282C49.8763 10.114 53.1567 7.4408 57.2573 7.4408C61.3873 7.4408 64.2706 10.0073 64.2706 13.9224C64.2779 14.4523 64.2485 14.9821 64.1933 15.4844ZM53.6716 13.1828H60.7731C60.5488 11.091 59.2469 10.0348 57.2646 10.0348C55.3964 10.0348 54.0393 11.0669 53.6716 13.1828Z" fill="#2F9687"/>
<path d="M80.2021 12.364V20.9649H76.5539V12.9488C76.5539 11.2286 75.5058 10.2241 73.6118 10.2241C71.7435 10.2241 70.2725 11.8926 70.2725 13.9018V20.9683H66.6242V8.02911L70.1033 7.63346V9.61856C71.122 8.45572 72.5931 7.50273 75.1086 7.50273C78.2787 7.49241 80.2021 9.42589 80.2021 12.364Z" fill="#2F9687"/>
<path d="M84.4424 17.5486V10.3513H82.0373V9.84903L84.8654 7.23092L87.5243 4.74353H88.0907V7.86739H92.5038V10.3548H88.0907V17.1013C88.0907 18.0818 88.657 18.6357 89.7309 18.6357C90.551 18.6357 91.5403 18.45 92.7282 18.1334L92.2758 20.7275C91.2571 21.044 90.1538 21.3364 88.543 21.3364C85.8583 21.333 84.4424 19.9843 84.4424 17.5486Z" fill="#2F9687"/>
<path d="M99.2928 12.5222C101.187 12.5222 102.404 13.2378 103.254 13.7401V13.0004C103.254 10.9878 101.897 10.0624 99.8591 10.0624C97.7371 10.0624 96.1521 10.6438 94.8538 11.0669L95.3356 8.04975C97.0053 7.65411 98.5867 7.4408 100.51 7.4408C104.585 7.4408 106.902 9.29172 106.902 13.0245V20.9614H103.393V19.7986C102.658 20.5933 101.102 21.3605 99.0942 21.3605C95.9277 21.3605 93.9455 19.403 93.9455 16.8605C93.9455 14.3181 96.0675 12.5222 99.2928 12.5222ZM100.142 18.8972C101.753 18.8972 103.283 17.786 103.283 16.0658V16.0142C102.264 15.3536 101.246 15.0337 100.087 15.0337C98.5315 15.0337 97.5974 15.7734 97.5974 16.8846C97.5974 17.9993 98.5278 18.8972 100.142 18.8972Z" fill="#2F9687"/>
<path d="M124.367 3.44641H132.741C137.378 3.44641 139.784 5.32485 139.784 9.2675C139.784 13.1035 137.18 15.1677 132.428 15.1677H128.129V21.0164H124.367V3.44641V3.44641ZM131.917 12.3088C134.69 12.3088 135.904 11.4109 135.904 9.29159C135.904 7.17576 134.771 6.30191 132.086 6.30191H128.125V12.3088H131.917Z" fill="#1E2144"/>
<path d="M142.24 2.99559L145.889 2.49329V21.0162H142.24V2.99559Z" fill="#1E2144"/>
<path d="M154.009 12.5737C155.903 12.5737 157.12 13.2893 157.97 13.7916V13.0519C157.97 11.0393 156.613 10.1139 154.575 10.1139C152.453 10.1139 150.868 10.6953 149.57 11.1185L150.052 8.10126C151.721 7.70562 153.303 7.49231 155.226 7.49231C159.301 7.49231 161.618 9.34323 161.618 13.076V21.013H158.109V19.8501C157.374 20.6448 155.818 21.412 153.81 21.412C150.644 21.412 148.661 19.4545 148.661 16.912C148.661 14.3696 150.783 12.5737 154.009 12.5737ZM154.855 18.9522C156.465 18.9522 157.995 17.8409 157.995 16.1208V16.0692C156.977 15.4086 155.958 15.0886 154.799 15.0886C153.244 15.0886 152.31 15.8283 152.31 16.9396C152.31 18.0508 153.244 18.9522 154.855 18.9522Z" fill="#1E2144"/>
<path d="M176.251 17.5485L175.769 20.2733C174.497 20.9889 172.857 21.4361 170.959 21.4361C166.237 21.4361 163.549 18.6838 163.549 14.4487C163.549 10.3203 166.575 7.48889 171.158 7.48889C172.853 7.48889 174.409 7.91205 175.541 8.38682L176.108 11.5348C174.412 10.74 172.996 10.1586 171.47 10.1586C169.039 10.1586 167.285 11.7446 167.311 14.4453C167.34 17.3834 168.866 18.8111 171.47 18.8111C173.114 18.818 174.725 18.3432 176.251 17.5485Z" fill="#1E2144"/>
<path d="M191.922 15.5359H181.37C181.738 17.7068 183.323 18.818 186.207 18.818C188.185 18.818 189.318 18.4464 191.326 17.6552L190.844 20.3799C189.796 20.8031 188.24 21.4396 185.497 21.4396C180.944 21.4396 177.605 18.873 177.605 14.4797C177.605 10.1655 180.885 7.49231 184.986 7.49231C189.116 7.49231 191.999 10.0588 191.999 13.974C192.006 14.5072 191.977 15.0336 191.922 15.5359ZM181.4 13.2343H188.501C188.277 11.1425 186.975 10.0863 184.993 10.0863C183.125 10.0863 181.768 11.1185 181.4 13.2343Z" fill="#1E2144"/>
</svg>
